HIERARCHY
ROOT Hips
{
  OFFSET -286.184 90.5621 1117.17
  CHANNELS 6 Xposition Yposition Zposition Zrotation Xrotation Yrotation
  JOINT Spine
  {
    OFFSET 0 8.00001 6.10676e-05
    CHANNELS 6 Xposition Yposition Zposition Zrotation Xrotation Yrotation
    JOINT Spine1
    {
      OFFSET 8.20143e-05 7.99999 -9.29041e-05
      CHANNELS 6 Xposition Yposition Zposition Zrotation Xrotation Yrotation
      JOINT Spine2
      {
        OFFSET -0.000729719 8.00003 -0.000538434
        CHANNELS 6 Xposition Yposition Zposition Zrotation Xrotation Yrotation
        JOINT Spine3
        {
          OFFSET 0 8 0
          CHANNELS 6 Xposition Yposition Zposition Zrotation Xrotation Yrotation
          JOINT Neck
          {
            OFFSET 0.000139098 17 -0.000160552
            CHANNELS 6 Xposition Yposition Zposition Zrotation Xrotation Yrotation
            JOINT Head
            {
              OFFSET -0.00462301 10.8 -0.00510914
              CHANNELS 6 Xposition Yposition Zposition Zrotation Xrotation Yrotation
              End Site
              {
                OFFSET 0 20.25 0
              }
            }
          }
          JOINT LeftShoulder
          {
            OFFSET 5.00005 17 -0.000137069
            CHANNELS 6 Xposition Yposition Zposition Zrotation Xrotation Yrotation
            JOINT LeftShoulder2
            {
              OFFSET 6.45 0 0
              CHANNELS 6 Xposition Yposition Zposition Zrotation Xrotation Yrotation
              JOINT LeftArm
              {
                OFFSET 6.44993 0 7.92198e-05
                CHANNELS 6 Xposition Yposition Zposition Zrotation Xrotation Yrotation
                JOINT LeftForeArm
                {
                  OFFSET -0.00118011 -32.4011 -2.0029
                  CHANNELS 6 Xposition Yposition Zposition Zrotation Xrotation Yrotation
                  JOINT LeftHand
                  {
                    OFFSET -0.0012599 -25.6462 2.00364
                    CHANNELS 6 Xposition Yposition Zposition Zrotation Xrotation Yrotation
                    JOINT LeftHandThumb1
                    {
                      OFFSET -0.499882 -1.50221 2.6512
                      CHANNELS 6 Xposition Yposition Zposition Zrotation Xrotation Yrotation
                      JOINT LeftHandThumb2
                      {
                        OFFSET -0.000525779 -3.79939 3.69989
                        CHANNELS 6 Xposition Yposition Zposition Zrotation Xrotation Yrotation
                        JOINT LeftHandThumb3
                        {
                          OFFSET 0.000780104 -3.00162 2.69672
                          CHANNELS 6 Xposition Yposition Zposition Zrotation Xrotation Yrotation
                          End Site
                          {
                            OFFSET 0.00155772 -2.29803 1.80367
                          }
                        }
                      }
                    }
                    JOINT LeftHandIndex
                    {
                      OFFSET -5.27567e-05 -1.89963 1.60059
                      CHANNELS 6 Xposition Yposition Zposition Zrotation Xrotation Yrotation
                      JOINT LeftHandIndex1
                      {
                        OFFSET -0.00269481 -8.30183 1.90191
                        CHANNELS 6 Xposition Yposition Zposition Zrotation Xrotation Yrotation
                        JOINT LeftHandIndex2
                        {
                          OFFSET -5.83552e-05 -4.50072 -0.000772977
                          CHANNELS 6 Xposition Yposition Zposition Zrotation Xrotation Yrotation
                          JOINT LeftHandIndex3
                          {
                            OFFSET -0.000427118 -3.4051 -5.86495e-05
                            CHANNELS 6 Xposition Yposition Zposition Zrotation Xrotation Yrotation
                            End Site
                            {
                              OFFSET -0.00132804 -2.60032 0.00127537
                            }
                          }
                        }
                      }
                    }
                    JOINT LeftHandMiddle
                    {
                      OFFSET -0.255868 -2.20065 0.397178
                      CHANNELS 6 Xposition Yposition Zposition Zrotation Xrotation Yrotation
                      JOINT LeftHandMiddle1
                      {
                        OFFSET -0.00364081 -8.29917 1.00166
                        CHANNELS 6 Xposition Yposition Zposition Zrotation Xrotation Yrotation
                        JOINT LeftHandMiddle2
                        {
                          OFFSET 0.000292993 -4.65002 -4.46866e-05
                          CHANNELS 6 Xposition Yposition Zposition Zrotation Xrotation Yrotation
                          JOINT LeftHandMiddle3
                          {
                            OFFSET -0.00157179 -3.29991 0.00166891
                            CHANNELS 6 Xposition Yposition Zposition Zrotation Xrotation Yrotation
                            End Site
                            {
                              OFFSET 0.00332002 -2.69761 -0.00177817
                            }
                          }
                        }
                      }
                    }
                    JOINT LeftHandRing
                    {
                      OFFSET -0.500331 -2.15077 -0.799251
                      CHANNELS 6 Xposition Yposition Zposition Zrotation Xrotation Yrotation
                      JOINT LeftHandRing1
                      {
                        OFFSET -0.00154602 -7.75179 -0.2027
                        CHANNELS 6 Xposition Yposition Zposition Zrotation Xrotation Yrotation
                        JOINT LeftHandRing2
                        {
                          OFFSET -0.00222939 -3.80083 0.000222412
                          CHANNELS 6 Xposition Yposition Zposition Zrotation Xrotation Yrotation
                          JOINT LeftHandRing3
                          {
                            OFFSET 0.000603175 -3.39671 -0.000715877
                            CHANNELS 6 Xposition Yposition Zposition Zrotation Xrotation Yrotation
                            End Site
                            {
                              OFFSET 0.00181561 -2.59818 -0.00104395
                            }
                          }
                        }
                      }
                    }
                    JOINT LeftHandPinky
                    {
                      OFFSET -0.750587 -1.75066 -1.85064
                      CHANNELS 6 Xposition Yposition Zposition Zrotation Xrotation Yrotation
                      JOINT LeftHandPinky1
                      {
                        OFFSET 0.000155829 -7.14998 -1.0001
                        CHANNELS 6 Xposition Yposition Zposition Zrotation Xrotation Yrotation
                        JOINT LeftHandPinky2
                        {
                          OFFSET -0.00367408 -3.00565 -0.00391968
                          CHANNELS 6 Xposition Yposition Zposition Zrotation Xrotation Yrotation
                          JOINT LeftHandPinky3
                          {
                            OFFSET 0.000889374 -2.34892 -0.000303466
                            CHANNELS 6 Xposition Yposition Zposition Zrotation Xrotation Yrotation
                            End Site
                            {
                              OFFSET -6.81399e-05 -2.1 -2.91135e-05
                            }
                          }
                        }
                      }
                    }
                  }
                }
              }
            }
          }
          JOINT RightShoulder
          {
            OFFSET -5 17 -9.71753e-05
            CHANNELS 6 Xposition Yposition Zposition Zrotation Xrotation Yrotation
            JOINT RightShoulder2
            {
              OFFSET -6.45 0 0
              CHANNELS 6 Xposition Yposition Zposition Zrotation Xrotation Yrotation
              JOINT RightArm
              {
                OFFSET -6.4499 4.27383e-05 0.000199656
                CHANNELS 6 Xposition Yposition Zposition Zrotation Xrotation Yrotation
                JOINT RightForeArm
                {
                  OFFSET -6.90714e-05 -32.3851 -1.98569
                  CHANNELS 6 Xposition Yposition Zposition Zrotation Xrotation Yrotation
                  JOINT RightHand
                  {
                    OFFSET -0.000824036 -25.6501 2.00268
                    CHANNELS 6 Xposition Yposition Zposition Zrotation Xrotation Yrotation
                    JOINT RightHandThumb1
                    {
                      OFFSET 0.499833 -1.49993 2.64979
                      CHANNELS 6 Xposition Yposition Zposition Zrotation Xrotation Yrotation
                      JOINT RightHandThumb2
                      {
                        OFFSET 0.000406279 -3.80004 3.70016
                        CHANNELS 6 Xposition Yposition Zposition Zrotation Xrotation Yrotation
                        JOINT RightHandThumb3
                        {
                          OFFSET 0.00038099 -3.01147 2.69729
                          CHANNELS 6 Xposition Yposition Zposition Zrotation Xrotation Yrotation
                          End Site
                          {
                            OFFSET 0.000140982 -2.29998 1.79998
                          }
                        }
                      }
                    }
                    JOINT RightHandIndex
                    {
                      OFFSET -0.000564666 -1.90026 1.60092
                      CHANNELS 6 Xposition Yposition Zposition Zrotation Xrotation Yrotation
                      JOINT RightHandIndex1
                      {
                        OFFSET 8.38238e-05 -8.30015 1.90004
                        CHANNELS 6 Xposition Yposition Zposition Zrotation Xrotation Yrotation
                        JOINT RightHandIndex2
                        {
                          OFFSET 0.000519524 -4.49823 -0.000198015
                          CHANNELS 6 Xposition Yposition Zposition Zrotation Xrotation Yrotation
                          JOINT RightHandIndex3
                          {
                            OFFSET 2.69873e-05 -3.39921 0.00073625
                            CHANNELS 6 Xposition Yposition Zposition Zrotation Xrotation Yrotation
                            End Site
                            {
                              OFFSET -0.000332591 -2.60009 -0.000513614
                            }
                          }
                        }
                      }
                    }
                    JOINT RightHandMiddle
                    {
                      OFFSET 0.247974 -2.2042 0.404489
                      CHANNELS 6 Xposition Yposition Zposition Zrotation Xrotation Yrotation
                      JOINT RightHandMiddle1
                      {
                        OFFSET -0.00108668 -8.30014 1.00205
                        CHANNELS 6 Xposition Yposition Zposition Zrotation Xrotation Yrotation
                        JOINT RightHandMiddle2
                        {
                          OFFSET -0.000347029 -4.65015 -0.000280078
                          CHANNELS 6 Xposition Yposition Zposition Zrotation Xrotation Yrotation
                          JOINT RightHandMiddle3
                          {
                            OFFSET -0.003093 -3.29169 0.0173895
                            CHANNELS 6 Xposition Yposition Zposition Zrotation Xrotation Yrotation
                            End Site
                            {
                              OFFSET 0.000189633 -2.70064 -0.000989272
                            }
                          }
                        }
                      }
                    }
                    JOINT RightHandRing
                    {
                      OFFSET 0.500789 -2.14984 -0.800127
                      CHANNELS 6 Xposition Yposition Zposition Zrotation Xrotation Yrotation
                      JOINT RightHandRing1
                      {
                        OFFSET 0.000964062 -7.74905 -0.202002
                        CHANNELS 6 Xposition Yposition Zposition Zrotation Xrotation Yrotation
                        JOINT RightHandRing2
                        {
                          OFFSET 6.99816e-05 -3.80001 6.41524e-05
                          CHANNELS 6 Xposition Yposition Zposition Zrotation Xrotation Yrotation
                          JOINT RightHandRing3
                          {
                            OFFSET -2.79253e-05 -3.40136 -0.00267296
                            CHANNELS 6 Xposition Yposition Zposition Zrotation Xrotation Yrotation
                            End Site
                            {
                              OFFSET -0.000378149 -2.59979 -6.04001e-05
                            }
                          }
                        }
                      }
                    }
                    JOINT RightHandPinky
                    {
                      OFFSET 0.75178 -1.74936 -1.85417
                      CHANNELS 6 Xposition Yposition Zposition Zrotation Xrotation Yrotation
                      JOINT RightHandPinky1
                      {
                        OFFSET 0.000106193 -7.14999 -0.999999
                        CHANNELS 6 Xposition Yposition Zposition Zrotation Xrotation Yrotation
                        JOINT RightHandPinky2
                        {
                          OFFSET -6.34545e-05 -3.00004 0.000166953
                          CHANNELS 6 Xposition Yposition Zposition Zrotation Xrotation Yrotation
                          JOINT RightHandPinky3
                          {
                            OFFSET -0.000175443 -2.34646 0.00185852
                            CHANNELS 6 Xposition Yposition Zposition Zrotation Xrotation Yrotation
                            End Site
                            {
                              OFFSET -0.000409123 -2.10154 -0.00275516
                            }
                          }
                        }
                      }
                    }
                  }
                }
              }
            }
          }
        }
      }
    }
  }
  JOINT LeftUpLeg
  {
    OFFSET 8.00004 0 3.19852e-05
    CHANNELS 6 Xposition Yposition Zposition Zrotation Xrotation Yrotation
    JOINT LeftLeg
    {
      OFFSET 0.000709475 -45.0003 -0.999663
      CHANNELS 6 Xposition Yposition Zposition Zrotation Xrotation Yrotation
      JOINT LeftFoot
      {
        OFFSET 0.00096248 -41.0001 -2.00054
        CHANNELS 6 Xposition Yposition Zposition Zrotation Xrotation Yrotation
        JOINT LeftToeBase
        {
          OFFSET -0.000653752 -7.5 12.4993
          CHANNELS 6 Xposition Yposition Zposition Zrotation Xrotation Yrotation
          JOINT LeftFootToe
          {
            OFFSET 0 0 4
            CHANNELS 6 Xposition Yposition Zposition Zrotation Xrotation Yrotation
            End Site
            {
              OFFSET 0 0 0
            }
          }
        }
      }
    }
  }
  JOINT RightUpLeg
  {
    OFFSET -8.00004 0 -3.19852e-05
    CHANNELS 6 Xposition Yposition Zposition Zrotation Xrotation Yrotation
    JOINT RightLeg
    {
      OFFSET 0.000130348 -45.0001 -0.999868
      CHANNELS 6 Xposition Yposition Zposition Zrotation Xrotation Yrotation
      JOINT RightFoot
      {
        OFFSET -0.00185555 -41.0007 -2.00181
        CHANNELS 6 Xposition Yposition Zposition Zrotation Xrotation Yrotation
        JOINT RightToeBase
        {
          OFFSET -0.000367186 -7.5 12.4997
          CHANNELS 6 Xposition Yposition Zposition Zrotation Xrotation Yrotation
          JOINT RightFootToe
          {
            OFFSET 0 0 4
            CHANNELS 6 Xposition Yposition Zposition Zrotation Xrotation Yrotation
            End Site
            {
              OFFSET 0 0 0
            }
          }
        }
      }
    }
  }
}
MOTION
Frames:	3
Frame Time:	0.0111111
-306.924 92.0338 1121.51 -4.40091 -3.80917 -142.064 0 8 1.13687e-13 -8.20316 5.76853 9.77745 2.27374e-13 8 0 0.839049 0.454523 3.7003 -2.27374e-13 8 -1.13687e-13 0.427819 0.222442 1.85145 0 8 0 0.422803 0.222583 1.84999 -2.27374e-13 17 2.27374e-13 -1.61764 5.17638 14.993 2.27374e-13 10.8 -2.84217e-14 -5.75558 -1.88401 34.922 5 17 1.13687e-13 -12.0531 5.36895 -5.34271 6.45 -1.13687e-13 0 -0.552389 0.672412 0.41754 6.45 0 -1.13687e-13 42.298 -27.7349 48.3373 2.27374e-13 -32.4 -2 -30.8759 -65.7652 -12.1748 0 -25.65 2 -25.383 24.918 -33.9939 -0.5 -1.5 2.65 165.929 -47.2423 -20.4987 0 -3.8 3.7 -0.0731136 26.5956 -0.0211273 -2.27374e-13 -3 2.7 -0.0321655 67.1421 0.0405989 -1.13687e-13 -1.9 1.6 6.93675e-06 -6.62223e-06 -2.80126e-06 0 -8.3 1.9 0.0194311 -0.138762 0.00626113 0 -4.5 0 -63.2128 0.056643 0.0201578 0 -3.4 -2.27374e-13 -44.9218 0.00477115 0.0288064 -0.25 -2.2 0.4 6.93675e-06 -6.62223e-06 -2.80126e-06 0 -8.3 1 -37.8228 13.5742 6.6172 -3.41061e-13 -4.65 1.13687e-13 -24.1268 -0.00118315 -0.00081378 -1.7053e-13 -3.3 0 -90.0002 -1.14632e-05 1.94778e-05 -0.5 -2.15 -0.8 6.93675e-06 -6.62223e-06 -2.80126e-06 0 -7.75 -0.2 -63.6574 2.89226 6.6348 5.68434e-14 -3.8 0 -15.0133 0.00402727 -0.00701479 -1.7053e-13 -3.4 1.13687e-13 -89.996 0.0327018 -2.33319 -0.75 -1.75 -1.85 6.93675e-06 -6.62223e-06 -2.80126e-06 0 -7.15 -1 -76.8302 -1.3583 7.31322 5.68434e-14 -3 0 -0.252192 0.0496874 -0.00222876 1.7053e-13 -2.35 0 -0.0164193 -0.00142554 -0.00103266 -5 17 1.7053e-13 -0.00652704 7.06106 -0.711724 -6.45 -1.13687e-13 -5.68434e-14 -0.826637 -0.158414 -1.61329 -6.45 0 -5.68434e-14 -41.075 9.17014 -16.0578 1.13687e-13 -32.4 -2 68.4705 -47.5453 71.4909 1.13687e-13 -25.65 2 -17.025 -23.3841 44.486 0.5 -1.5 2.65 55.0981 15.318 153.539 1.13687e-13 -3.8 3.7 0.624622 7.10204 -0.0133494 -1.13687e-13 -3 2.7 0.0572869 60.0475 -0.0209642 2.84217e-14 -1.9 1.6 -5.77173e-06 -3.66789e-06 1.70029e-06 -5.68434e-14 -8.3 1.9 41.9675 -1.05674 -0.145753 2.27374e-13 -4.5 0 2.29085 5.16237 0.513224 0 -3.4 -2.27374e-13 11.5187 0.0132619 0.00141734 0.25 -2.2 0.4 -5.77173e-06 -3.66789e-06 1.70029e-06 0 -8.3 1 47.7202 -0.549437 -1.26271 -1.7053e-13 -4.65 0 0.434324 14.9673 13.5961 5.68434e-14 -3.3 0 74.331 0.0629834 0.0243514 0.5 -2.15 -0.8 -5.77173e-06 -3.66789e-06 1.70029e-06 2.84217e-14 -7.75 -0.2 55.2827 -4.34796 -0.843069 1.13687e-13 -3.8 2.27374e-13 0.905455 21.9035 19.428 -1.13687e-13 -3.4 -2.27374e-13 74.273 -0.0275706 0.0100826 0.75 -1.75 -1.85 -5.77173e-06 -3.66789e-06 1.70029e-06 2.84217e-14 -7.15 -1 52.9955 -10.0975 1.27909 0 -3 2.27374e-13 2.90653 20.5993 13.8736 0 -2.35 -2.27374e-13 52.4986 0.0164757 -0.0181159 8 0 0 -13.7627 -6.53871 -7.97829 -1.13687e-13 -45 -1 8.24701 5.65339 0.264779 1.13687e-13 -41 -2 -1.16615 1.58656 -18.7644 0 -7.5 12.5 -5.15373e-07 -1.07823e-07 -0.00583475 0 2.77556e-17 4 -3.02886 -7.98132 53.2173 -8 1.42109e-14 0 -20.217 6.11195 -14.4579 0 -45 -1 7.86698 -2.05026 -2.60153 1.13687e-13 -41 -2 6.24452 -0.322013 -23.5849 2.84217e-14 -7.5 12.5 1.59588e-05 -0.000132726 -0.0448246 0 0 4 -8.30864 0.762036 51.454 
-306.956 92.0357 1121.55 -4.40638 -3.79692 -142.193 0 8 1.13687e-13 -8.21654 5.76756 9.82208 0 8 1.13687e-13 0.841366 0.455852 3.72307 0 8 -1.13687e-13 0.427761 0.222872 1.86283 0 8 0 0.424228 0.223605 1.86203 -2.27374e-13 17 2.27374e-13 -1.61478 5.17027 14.9898 0 10.8 -5.68434e-14 -5.74391 -1.89526 34.9152 5 17 2.27374e-13 -12.1125 5.35211 -5.37322 6.45 -1.13687e-13 0 -0.538236 0.667328 0.425056 6.45 0 0 41.784 -27.3464 48.219 0 -32.4 -2 -32.2348 -66.0112 -13.7254 0 -25.65 2 -25.1104 24.6907 -33.5926 -0.5 -1.5 2.65 167.258 -46.7148 -19.5398 0 -3.8 3.7 -0.0715149 25.3152 -0.0258589 -2.27374e-13 -3 2.7 -0.0291802 66.8468 0.039031 -1.13687e-13 -1.9 1.6 6.93675e-06 -6.62223e-06 -2.80126e-06 1.13687e-13 -8.3 1.9 0.019438 -0.201717 0.00626115 0 -4.5 0 -62.877 0.05508 0.0201578 -1.13687e-13 -3.4 -1.13687e-13 -44.6191 0.00477115 0.0288064 -0.25 -2.2 0.4 6.93675e-06 -6.62223e-06 -2.80126e-06 0 -8.3 1 -37.6772 13.3922 6.51917 -2.27374e-13 -4.65 -1.13687e-13 -23.2867 -0.00118315 -0.00081378 -1.13687e-13 -3.3 0 -90.0002 -1.14632e-05 1.94778e-05 -0.5 -2.15 -0.8 6.93675e-06 -6.62223e-06 -2.80126e-06 -2.27374e-13 -7.75 -0.2 -63.3473 2.75067 6.48296 5.68434e-14 -3.8 0 -14.4173 0.00402727 -0.00701479 -1.7053e-13 -3.4 1.13687e-13 -89.996 0.0327018 -2.33319 -0.75 -1.75 -1.85 6.93675e-06 -6.62223e-06 -2.80126e-06 0 -7.15 -1 -76.3625 -1.46365 7.10212 5.68434e-14 -3 0 -0.252192 0.0496874 -0.00222876 1.13687e-13 -2.35 0 0.00549857 -0.00142554 -0.00103266 -5 17 1.13687e-13 -0.0128074 7.04203 -0.641142 -6.45 -1.13687e-13 -1.7053e-13 -0.813671 -0.164443 -1.60837 -6.45 0 5.68434e-14 -41.0121 8.97799 -16.0138 0 -32.4 -2 69.9364 -47.9027 72.587 1.13687e-13 -25.65 2 -16.6828 -22.6463 44.7488 0.5 -1.5 2.65 55.367 15.419 153.382 2.27374e-13 -3.8 3.7 0.607562 6.59492 -0.0279757 -1.13687e-13 -3 2.7 0.0572869 60.0475 -0.0209642 0 -1.9 1.6 -5.77173e-06 -3.66789e-06 1.70029e-06 2.84217e-14 -8.3 1.9 41.6651 -1.03073 -0.152963 5.68434e-14 -4.5 -2.27374e-13 2.34466 5.29082 0.53969 5.68434e-14 -3.4 -2.27374e-13 11.7649 0.0132619 0.00141734 0.25 -2.2 0.4 -5.77173e-06 -3.66789e-06 1.70029e-06 0 -8.3 1 47.6497 -0.462078 -1.30515 -1.7053e-13 -4.65 -2.27374e-13 0.432831 14.9669 13.6018 0 -3.3 0 74.3754 0.0629834 0.0222204 0.5 -2.15 -0.8 -5.77173e-06 -3.66789e-06 1.70029e-06 -2.84217e-14 -7.75 -0.2 55.4741 -4.24688 -0.913606 0 -3.8 0 0.911352 21.9006 19.4122 -5.68434e-14 -3.4 -2.27374e-13 74.1923 -0.0275706 0.0100826 0.75 -1.75 -1.85 -5.77173e-06 -3.66789e-06 1.70029e-06 0 -7.15 -1 53.439 -10.0073 1.22477 5.68434e-14 -3 2.27374e-13 2.94341 20.5504 13.7515 0 -2.35 2.27374e-13 52.1338 0.0167354 -0.0181159 8 0 -3.41061e-13 -13.772 -6.51725 -8.18247 1.13687e-13 -45 -1 8.18528 5.61927 0.274446 0 -41 -2 -1.1143 1.62608 -18.7495 0 -7.5 12.5 -5.15373e-07 -1.07823e-07 -0.00583475 -1.13687e-13 2.77556e-17 4 -3.02469 -7.96942 53.2205 -8 1.42109e-14 1.13687e-13 -20.2119 6.0236 -14.2885 0 -45 -1 7.75052 -2.01501 -2.57659 0 -41 -2 6.32954 -0.331575 -23.6196 5.68434e-14 -7.5 12.5 1.59588e-05 -0.000132726 -0.0448246 -5.68434e-14 0 4 -8.3004 0.730325 51.379 
-306.981 92.0392 1121.59 -4.41274 -3.78531 -142.317 0 8 2.27374e-13 -8.22675 5.76536 9.86278 0 8 1.13687e-13 0.842635 0.458831 3.74854 2.27374e-13 8 -1.13687e-13 0.42766 0.22445 1.87558 0 8 5.68434e-14 0.42559 0.225982 1.87504 -2.27374e-13 17 0 -1.60763 5.16263 14.9811 0 10.8 -1.42109e-13 -5.72412 -1.90358 34.896 5 17 5.68434e-14 -12.1752 5.32971 -5.40621 6.45 -1.7053e-13 0 -0.525945 0.661265 0.433761 6.45 0 -1.13687e-13 41.2242 -26.9805 48.1586 2.27374e-13 -32.4 -2 -33.7274 -66.2704 -15.4387 0 -25.65 2 -24.744 24.4438 -33.3339 -0.5 -1.5 2.65 168.598 -45.954 -18.6069 0 -3.8 3.7 -0.0716725 23.6466 -0.0271746 -2.27374e-13 -3 2.7 -0.0225374 66.4002 0.0341673 -2.27374e-13 -1.9 1.6 6.93675e-06 -6.62223e-06 -2.80126e-06 1.13687e-13 -8.3 1.9 0.019447 -0.28451 0.00626119 1.13687e-13 -4.5 -1.13687e-13 -62.3959 0.0534322 0.0201578 -5.68434e-14 -3.4 -1.13687e-13 -44.1862 0.00477115 0.0288064 -0.25 -2.2 0.4 6.93675e-06 -6.62223e-06 -2.80126e-06 0 -8.3 1 -37.2672 13.1724 6.36365 -3.41061e-13 -4.65 1.13687e-13 -22.5357 -0.00118315 -0.00081378 -1.13687e-13 -3.3 0 -90.0002 -1.14632e-05 1.94778e-05 -0.5 -2.15 -0.8 6.93675e-06 -6.62223e-06 -2.80126e-06 -1.13687e-13 -7.75 -0.2 -62.8027 2.61907 6.30101 0 -3.8 -2.27374e-13 -13.9355 0.00402727 -0.00701479 -1.7053e-13 -3.4 0 -89.996 0.0327018 -2.33319 -0.75 -1.75 -1.85 6.93675e-06 -6.62223e-06 -2.80126e-06 0 -7.15 -1 -75.7163 -1.56772 6.84421 0 -3 1.13687e-13 -0.252192 0.0496874 -0.00222876 1.7053e-13 -2.35 -1.13687e-13 0.00917606 -0.00142554 -0.00103266 -5 17 0 -0.0325145 7.03763 -0.546379 -6.45 -1.13687e-13 -2.27374e-13 -0.796521 -0.170499 -1.60853 -6.45 0 0 -40.9201 8.77447 -15.974 0 -32.4 -2 71.5081 -48.263 73.7654 1.13687e-13 -25.65 2 -16.3397 -21.8644 45.0083 0.5 -1.5 2.65 55.6515 15.5289 153.212 2.27374e-13 -3.8 3.7 0.589348 6.04799 -0.0440007 -1.13687e-13 -3 2.7 0.0572869 60.0475 -0.0209642 0 -1.9 1.6 -5.77173e-06 -3.66789e-06 1.70029e-06 0 -8.3 1.9 41.3135 -1.00093 -0.16036 1.13687e-13 -4.5 0 2.40367 5.4312 0.569475 -1.13687e-13 -3.4 -2.27374e-13 12.0309 0.0132619 0.00141734 0.25 -2.2 0.4 -5.77173e-06 -3.66789e-06 1.70029e-06 -2.84217e-14 -8.3 1 47.5667 -0.366391 -1.35187 0 -4.65 0 0.430945 14.9665 13.6091 5.68434e-14 -3.3 0 74.4319 0.0629834 0.0188645 0.5 -2.15 -0.8 -5.77173e-06 -3.66789e-06 1.70029e-06 0 -7.75 -0.2 55.683 -4.13948 -0.990538 5.68434e-14 -3.8 -2.27374e-13 0.919592 21.8971 19.3899 -5.68434e-14 -3.4 -2.27374e-13 74.0793 -0.0275706 0.0100826 0.75 -1.75 -1.85 -5.77173e-06 -3.66789e-06 1.70029e-06 -2.84217e-14 -7.15 -1 53.9066 -9.91108 1.16367 5.68434e-14 -3 0 2.98241 20.4974 13.6219 5.68434e-14 -2.35 0 51.7502 0.0177761 -0.0181159 8 0 0 -13.7725 -6.49439 -8.38462 0 -45 -1 8.1141 5.57326 0.287703 0 -41 -2 -1.0614 1.67528 -18.7175 -1.13687e-13 -7.5 12.5 -5.15373e-07 -1.07823e-07 -0.00583475 -2.27374e-13 2.77556e-17 4 -3.02059 -7.95779 53.2589 -8 0 2.27374e-13 -20.203 5.92685 -14.1132 0 -45 -1 7.63042 -1.96672 -2.55088 0 -41 -2 6.40979 -0.350611 -23.6519 0 -7.5 12.5 1.59588e-05 -0.000132726 -0.0448246 5.68434e-14 0 4 -8.28786 0.69647 51.3137 
